<?xml version="1.0" standalone="no"?>
<!DOCTYPE svg PUBLIC "-//W3C//DTD SVG 20010904//EN"
 "http://www.w3.org/TR/2001/REC-SVG-20010904/DTD/svg10.dtd">
<svg version="1.0" xmlns="http://www.w3.org/2000/svg"
 width="228.000000pt" height="228.000000pt" viewBox="0 0 228.000000 228.000000"
 preserveAspectRatio="xMidYMid meet">
<metadata>
Created by potrace 1.14, written by Peter Selinger 2001-2017
</metadata>
<g transform="translate(0.000000,228.000000) scale(0.100000,-0.100000)"
fill="#000000" stroke="none">
<path d="M923 2165 c-115 -29 -260 -97 -364 -170 -72 -51 -98 -60 -66 -25 10
12 9 12 -5 1 -15 -11 -22 -11 -43 3 -13 9 -36 16 -49 16 -30 0 -38 -22 -34
-95 l3 -50 -41 -1 c-22 0 -46 -4 -52 -8 -17 -10 -15 -41 3 -56 18 -15 19 -41
3 -59 -11 -11 -10 -12 1 -6 9 5 12 3 9 -6 -3 -8 -10 -13 -15 -12 -13 3 -76
-132 -102 -220 -11 -37 -25 -116 -31 -176 -25 -250 33 -478 176 -694 70 -105
102 -139 342 -365 l141 -133 42 28 43 28 210 0 c116 0 243 4 282 9 l71 9 42
-38 c38 -35 44 -37 68 -26 43 20 353 345 411 431 155 233 210 417 199 672 -6
165 -29 254 -102 405 -39 80 -55 124 -55 153 0 54 -14 79 -54 95 -31 13 -34
19 -38 66 -4 35 -12 57 -24 66 -22 16 -58 18 -48 2 4 -8 -1 -9 -16 -4 -12 4
-20 3 -17 -2 7 -11 -21 -49 -29 -40 -4 4 -1 13 6 22 10 13 9 15 -7 15 -10 0
-27 6 -38 13 -11 8 -33 22 -50 32 -25 15 -24 12 10 -19 l40 -37 -57 37 c-56
36 -74 52 -43 40 22 -8 18 2 -6 15 -15 8 -19 8 -15 0 10 -15 9 -15 -85 26
-142 61 -206 75 -374 78 -131 3 -162 1 -242 -20z m382 -6 c102 -20 125 -29
125 -49 0 -13 -5 -18 -15 -14 -9 4 -15 0 -15 -10 0 -18 -8 -20 -30 -6 -13 8
-12 10 3 10 21 0 22 8 0 32 -19 21 -69 24 -76 4 -3 -7 0 -19 6 -26 10 -10 8
-12 -6 -6 -10 3 -30 6 -43 6 -15 0 -23 4 -19 10 4 6 11 8 16 5 5 -4 9 3 9 15
0 12 -4 18 -10 15 -5 -3 -10 -1 -10 4 0 6 -7 11 -16 11 -11 0 -14 -6 -10 -22
3 -13 3 -17 0 -10 -3 6 -13 12 -22 12 -12 0 -13 -3 -4 -12 20 -20 14 -28 -23
-28 -26 0 -33 -3 -29 -15 5 -11 -1 -15 -25 -15 -17 0 -31 5 -31 10 0 6 8 10
18 10 11 0 27 9 37 20 15 16 15 22 5 35 -7 8 -17 15 -22 15 -6 0 -5 -7 2 -16
11 -12 10 -18 -5 -32 -18 -16 -18 -16 -6 0 11 15 10 20 -3 33 -9 9 -20 13 -26
10 -14 -9 -12 -45 3 -46 13 -1 -159 -37 -182 -38 -11 -1 -11 2 -1 14 6 8 10
20 7 27 -3 8 -6 6 -6 -5 -1 -10 -6 -15 -11 -12 -6 4 -8 11 -5 16 4 5 1 9 -5 9
-6 0 -9 -12 -8 -26 2 -15 -3 -30 -12 -35 -29 -16 -181 -89 -187 -89 -3 0 -2
12 1 28 5 20 4 23 -4 12 -9 -13 -11 -13 -20 0 -6 10 -10 11 -10 3 0 -7 -7 -10
-16 -6 -14 5 -14 3 -3 -16 16 -25 31 -28 22 -4 -4 11 -3 14 5 9 29 -18 10 -49
-52 -82 -26 -14 -28 -14 -23 -1 6 17 -19 44 -30 33 -4 -4 -1 -11 7 -16 17 -10
13 -15 -16 -24 -13 -4 -26 -1 -33 8 -25 30 151 143 312 201 99 35 230 61 272
53 14 -3 28 -2 31 3 5 9 114 2 189 -12z m162 -45 c-3 -3 -12 -4 -19 -1 -8 3
-5 6 6 6 11 1 17 -2 13 -5z m45 -44 c-2 -17 -7 -30 -11 -30 -12 0 -27 15 -34
32 -4 12 -2 15 9 11 8 -3 14 1 14 11 0 9 6 13 13 10 9 -3 12 -16 9 -34z m-447
10 c4 -6 -7 -10 -27 -9 -31 1 -32 1 -8 9 14 4 26 8 27 9 1 1 5 -3 8 -9z m145
0 c0 -5 -11 -10 -25 -10 -14 0 -25 5 -25 10 0 6 11 10 25 10 14 0 25 -4 25
-10z m66 0 c9 0 13 -4 10 -9 -7 -11 -56 -2 -56 11 0 6 7 7 16 4 9 -3 22 -6 30
-6z m-296 -21 c-14 -4 -32 -7 -39 -8 -21 -1 -1 16 24 21 30 7 43 -5 15 -13z
m356 11 c15 -6 24 -13 22 -16 -8 -8 -58 7 -58 17 0 11 3 11 36 -1z m-416 -20
c0 -5 -6 -10 -12 -10 -7 0 -24 -3 -38 -5 -22 -5 -21 -3 5 9 36 18 45 19 45 6z
m506 -11 c3 -5 1 -9 -5 -9 -17 0 -41 12 -41 20 0 10 38 1 46 -11z m189 11 c3
-5 2 -10 -4 -10 -6 0 -7 -7 -4 -17 4 -10 2 -14 -5 -9 -6 3 -10 15 -9 26 1 22
12 26 22 10z m-115 -41 c0 -4 -13 -3 -30 2 -16 6 -28 15 -25 20 6 9 55 -10 55
-22z m-674 6 c-23 -17 -36 -19 -36 -6 0 11 18 19 40 20 11 0 10 -3 -4 -14z
m-46 -15 c0 -5 -13 -16 -30 -25 -38 -19 -40 -1 -2 19 33 18 32 18 32 6z m-335
-56 c23 -36 16 -37 -25 -3 -30 25 -31 29 -13 29 11 0 28 -12 38 -26z m265 20
c0 -11 -34 -33 -50 -33 -10 0 -8 6 9 19 23 20 41 26 41 14z m-81 -65 c-25 -16
-32 -9 -13 12 12 13 20 16 22 9 3 -7 -2 -16 -9 -21z m1251 -29 c12 -8 9 -10
-12 -10 -14 0 -35 -3 -45 -7 -16 -6 -16 -5 -4 10 15 19 38 22 61 7z m50 -6 c0
-2 -7 -4 -15 -4 -8 0 -15 4 -15 10 0 5 7 7 15 4 8 -4 15 -8 15 -10z m-330 -3
c0 -5 -6 -13 -13 -19 -13 -11 -261 -81 -352 -100 -27 -6 -75 -16 -106 -22 -76
-17 -307 -8 -376 14 -41 13 -54 22 -59 42 -4 14 -4 28 0 31 3 4 63 -3 134 -16
111 -19 140 -20 229 -12 56 6 134 18 175 27 91 21 315 62 346 63 12 1 22 -3
22 -8z m-1257 -48 c-7 -2 -19 -2 -25 0 -7 3 -2 5 12 5 14 0 19 -2 13 -5z
m1667 -123 c6 -11 8 -20 6 -20 -3 0 -10 9 -16 20 -6 11 -8 20 -6 20 3 0 10 -9
16 -20z m-1693 -12 c-3 -8 -6 -5 -6 6 -1 11 2 17 5 13 3 -3 4 -12 1 -19z m-74
-64 c-14 -32 -37 -93 -49 -134 -13 -41 -23 -68 -23 -59 -2 37 84 267 96 256 2
-2 -9 -30 -24 -63z m265 0 c2 -1 -4 -49 -12 -107 -12 -77 -16 -186 -16 -417
l0 -312 29 -26 c70 -66 514 -326 543 -319 26 7 34 -14 12 -30 -27 -21 -127
-10 -156 17 -12 11 -31 20 -43 20 -11 0 -44 16 -74 35 -29 19 -57 35 -61 35
-23 0 -276 162 -287 185 -43 81 -52 559 -17 923 l7 63 36 -33 c20 -18 37 -34
39 -34z m1459 14 c-3 -7 -5 -2 -5 12 0 14 2 19 5 13 2 -7 2 -19 0 -25z m-1647
7 c0 -8 -2 -15 -4 -15 -2 0 -6 7 -10 15 -3 8 -1 15 4 15 6 0 10 -7 10 -15z
m-30 -27 c0 -18 -5 -40 -11 -48 -8 -12 -9 -9 -4 9 6 19 4 23 -9 18 -19 -8 -19
-6 -4 28 16 35 28 31 28 -7z m1478 6 c2 -1 -6 -57 -17 -123 -13 -71 -28 -224
-36 -369 -24 -418 -23 -412 -54 -426 -14 -6 -39 -20 -55 -31 -72 -49 -402
-232 -409 -228 -5 3 -4 10 2 16 6 6 11 19 11 30 0 14 -5 17 -22 12 -23 -6 -23
-6 1 13 13 11 101 64 194 118 94 55 179 106 189 114 16 13 20 49 33 305 9 167
24 343 36 415 31 186 23 170 78 163 25 -3 48 -7 49 -9z m-605 -47 c35 -21 59
-27 104 -27 78 0 142 -23 182 -64 l33 -34 -22 -78 c-13 -48 -33 -94 -51 -116
-22 -28 -29 -47 -29 -80 0 -24 -9 -61 -19 -81 -30 -59 -101 -147 -132 -162
-15 -8 -32 -28 -37 -44 -15 -43 -83 -131 -138 -179 -26 -23 -50 -42 -54 -42
-29 0 -165 154 -192 219 -7 16 -28 40 -47 53 -19 13 -57 55 -84 95 -43 61 -51
80 -55 130 -4 44 -12 66 -33 93 -16 20 -37 68 -49 114 l-22 78 33 34 c40 42
104 64 184 64 40 0 68 6 84 16 46 33 103 44 202 41 83 -3 103 -8 142 -30z
m917 -32 c0 -5 -5 -3 -10 5 -5 8 -10 20 -10 25 0 6 5 3 10 -5 5 -8 10 -19 10
-25z m-1765 -75 c-4 -12 -9 -19 -12 -17 -3 3 -2 15 2 27 4 12 9 19 12 17 3 -3
2 -15 -2 -27z m-148 -82 c-3 -8 -6 -5 -6 6 -1 11 2 17 5 13 3 -3 4 -12 1 -19z
m-10 -70 c-3 -7 -5 -2 -5 12 0 14 2 19 5 13 2 -7 2 -19 0 -25z m973 -858 c0
-11 -6 -20 -14 -20 -21 0 -31 21 -15 31 22 14 29 11 29 -11z"/>
<path d="M963 2120 c0 -23 3 -27 13 -19 7 6 23 7 36 4 l23 -7 -24 26 c-32 34
-48 33 -48 -4z"/>
<path d="M840 2111 c0 -8 -6 -11 -15 -7 -8 3 -15 1 -15 -4 0 -12 40 -34 48
-26 3 3 -1 6 -9 6 -12 0 -11 2 1 10 12 7 12 12 2 22 -9 9 -12 9 -12 -1z"/>
<path d="M740 2071 c0 -6 -7 -11 -16 -11 -13 0 -14 -3 -4 -15 7 -8 16 -12 21
-9 5 3 9 0 9 -5 0 -6 5 -11 10 -11 15 0 12 36 -5 50 -10 9 -15 9 -15 1z"/>
<path d="M510 1920 c0 -5 5 -10 10 -10 6 0 10 5 10 10 0 6 -4 10 -10 10 -5 0
-10 -4 -10 -10z"/>
<path d="M890 1543 c-8 -3 -28 -15 -43 -26 -22 -15 -47 -20 -110 -21 -85 -2
-142 -21 -154 -52 -11 -28 20 -127 54 -171 26 -34 33 -53 33 -88 0 -25 9 -63
19 -84 27 -53 98 -140 124 -153 12 -5 35 -36 50 -68 16 -32 53 -82 83 -111
l54 -53 54 53 c30 29 67 80 83 112 15 32 36 61 45 64 24 8 101 101 127 152 12
25 21 61 21 88 0 35 7 54 33 88 34 44 65 143 54 171 -12 31 -69 50 -154 52
-68 1 -87 6 -115 25 -29 21 -46 24 -138 26 -58 1 -112 0 -120 -4z m229 -34
c71 -32 43 -43 -115 -44 -163 -1 -196 11 -124 44 62 28 178 28 239 0z m-298
-43 c73 -16 159 -53 159 -69 0 -6 -7 -18 -16 -28 -14 -16 -18 -16 -57 6 -49
27 -127 43 -180 37 l-38 -4 6 -52 c8 -61 -11 -100 -38 -78 -14 12 -62 150 -55
158 2 2 24 12 48 23 53 24 83 25 171 7z m530 -7 c27 -12 49 -27 48 -33 -2 -33
-46 -141 -61 -150 -26 -16 -33 0 -31 69 l1 63 -36 4 c-52 6 -130 -10 -179 -37
-39 -22 -43 -22 -57 -6 -9 10 -16 22 -16 28 0 16 110 61 171 72 85 14 107 12
160 -10z m-78 -97 c23 -54 37 -112 37 -157 0 -54 -48 -150 -98 -199 -66 -63
-82 -22 -21 56 37 46 59 108 59 163 0 44 -29 127 -49 139 -18 11 -13 26 12 35
31 12 42 5 60 -37z m-468 27 c4 -5 0 -18 -8 -27 -25 -28 -47 -92 -47 -137 0
-55 16 -100 55 -156 39 -55 50 -85 35 -94 -19 -12 -90 65 -121 130 -40 82 -37
152 8 258 13 30 21 37 44 37 15 0 31 -5 34 -11z m252 -60 c26 -28 54 -67 62
-86 12 -30 12 -36 -5 -55 l-19 -21 35 18 c19 10 47 26 62 36 36 26 48 24 48
-10 0 -41 -55 -78 -152 -100 -104 -24 -217 -5 -300 52 -20 13 -28 27 -28 48 0
34 12 36 48 10 69 -48 110 -61 192 -61 44 0 80 3 80 8 0 15 -67 126 -78 130
-6 2 -24 -21 -41 -50 -16 -29 -34 -59 -38 -67 -7 -10 -13 -9 -32 7 -23 18 -24
21 -11 53 15 38 98 136 117 138 7 1 34 -22 60 -50z m-155 -231 c11 -9 17 -34
20 -84 3 -59 9 -79 32 -113 16 -22 36 -41 46 -41 10 0 30 19 46 41 24 35 29
54 33 116 3 67 6 76 27 85 13 6 27 8 31 4 4 -4 6 -41 5 -83 -2 -65 -7 -84 -37
-137 -18 -33 -50 -77 -69 -95 l-36 -35 -36 35 c-59 57 -101 144 -104 214 -5
108 2 124 42 93z m155 -132 c3 -3 -2 -15 -12 -26 -23 -26 -67 -26 -91 1 -16
17 -16 22 -4 30 15 10 96 6 107 -5z"/>
<path d="M1490 2142 c8 -5 26 -13 40 -16 17 -5 20 -4 10 2 -8 5 -26 13 -40 16
-17 5 -20 4 -10 -2z"/>
</g>
</svg>
